<svg preserveAspectRatio="none" width="100%" height="100%" overflow="visible" style="display: block;" viewBox="0 0 270 40" fill="none" xmlns="http://www.w3.org/2000/svg">
<g id="logo-menu">
<path d="M27.6903 34.2937C28.9932 32.439 29.6459 30.1725 29.6459 27.4897C29.6459 25.7642 29.3229 24.2502 28.6814 22.9456C28.0377 21.6431 27.1201 20.5143 25.9262 19.5569C24.7324 18.6018 23.318 17.7936 21.6831 17.1324C20.0483 16.4711 18.2196 15.939 16.1994 15.536C15.3174 15.3891 14.4732 15.1976 13.6647 14.9571C12.8562 14.7189 12.139 14.425 11.5153 14.0755C10.8895 13.7259 10.395 13.3318 10.0275 12.891C9.65996 12.4502 9.47732 11.9181 9.47732 11.2947C9.47732 10.5978 9.69783 10.0011 10.1388 9.50462C10.5799 9.00813 11.1946 8.62296 11.9853 8.34688C12.776 8.0708 13.7204 7.93276 14.8229 7.93276C15.9255 7.93276 16.9255 8.09752 17.9367 8.42926C18.9457 8.75877 19.9013 9.23745 20.8033 9.86085C21.7032 10.4865 22.5384 11.2746 23.3113 12.2298L29.0979 6.66592C28.178 5.26995 27.0666 4.07659 25.7636 3.08583C24.4584 2.09507 22.897 1.33363 21.0795 0.799287C19.262 0.267171 17.0837 0 14.549 0C12.6379 0 10.8026 0.284983 9.03853 0.852722C7.27448 1.42269 5.72203 2.23088 4.38117 3.2773C3.04031 4.32372 1.97565 5.57275 1.18494 7.02215C0.394239 8.47824 0 10.0679 0 11.7934C0 13.4098 0.256144 14.8703 0.770659 16.1728C1.28517 17.4775 2.06474 18.633 3.11159 19.6438C4.15844 20.6546 5.47257 21.5073 7.05175 22.2042C8.63093 22.9033 10.4863 23.491 12.6179 23.9675C13.3885 24.1144 14.1414 24.2903 14.8764 24.4907C15.6114 24.6933 16.3086 24.9315 16.9701 25.2076C17.6316 25.4837 18.1996 25.7865 18.6784 26.116C19.1551 26.4455 19.5315 26.8329 19.8077 27.2737C20.0839 27.7146 20.222 28.2111 20.222 28.761C20.222 29.4957 20.0015 30.1102 19.5605 30.6067C19.1195 31.1032 18.4936 31.4795 17.6873 31.7355C16.8788 31.9938 15.9789 32.1207 14.9878 32.1207C13.8696 32.1207 12.7715 31.9871 11.6935 31.7177L19.4536 39.4746C20.4715 39.2408 21.4359 38.9291 22.3446 38.5372C24.6032 37.5643 26.385 36.1505 27.6903 34.2959V34.2937Z" fill="#56E1E8"/>
<path d="M59.432 29.4467C58.5322 30.0167 57.5499 30.4664 56.483 30.7959C55.4161 31.1255 54.2958 31.2924 53.122 31.2924C51.3958 31.2924 49.8233 31.0364 48.4112 30.5221C46.9968 30.0078 45.794 29.2553 44.8007 28.2645C43.8095 27.2737 43.0366 26.0893 42.4865 24.7111C41.9363 23.333 41.6601 21.8012 41.6601 20.1113C41.6601 18.4215 41.9363 16.8251 42.4865 15.4291C43.0366 14.0332 43.8006 12.8487 44.7739 11.8758C45.7473 10.9028 46.8854 10.1503 48.1907 9.61817C49.4937 9.08605 50.8813 8.81888 52.3513 8.81888C53.5274 8.81888 54.6299 8.98364 55.6567 9.31537C56.6857 9.64488 57.6301 10.1147 58.4943 10.7202C59.3563 11.3258 60.176 12.0338 60.9466 12.842L66.6776 6.28743C65.575 5.00278 64.2609 3.8918 62.7374 2.95447C61.2117 2.01714 59.5679 1.31137 57.8061 0.832684C56.042 0.356228 54.2423 0.115774 52.4048 0.115774C49.4647 0.115774 46.7563 0.612268 44.2772 1.60303C41.7982 2.59379 39.6488 3.98085 37.8291 5.76199C36.0116 7.54314 34.5861 9.64488 33.5593 12.0695C32.5303 14.494 32.0157 17.1368 32.0157 20.0022C32.0157 22.8676 32.5013 25.6306 33.4769 28.073C34.4502 30.5154 35.8379 32.6261 37.6375 34.4072C39.4372 36.1884 41.5599 37.5665 44.0033 38.5395C46.4467 39.5124 49.1195 40 52.0217 40C53.8949 40 55.7592 39.7707 57.6145 39.312C59.4699 38.8534 61.1604 38.2189 62.6839 37.4107C64.2074 36.6025 65.4303 35.6852 66.3479 34.6566L61.8286 27.4964C61.1293 28.2311 60.3319 28.8834 59.432 29.4512V29.4467Z" fill="#56E1E8"/>
<path d="M79.2888 0.0044572V39.4722H77.6983V0.0044572H79.2888Z" fill="white"/>
<path d="M98.6398 30.5444C96.8402 30.5444 95.2253 30.2416 93.7976 29.6382C92.3699 29.0348 91.2072 28.1665 90.3074 27.0355L93.3945 24.3749C94.1651 25.2499 95.0271 25.88 95.9782 26.2652C96.9292 26.6503 97.9316 26.844 98.9873 26.844C99.4239 26.844 99.8159 26.7928 100.163 26.6904C100.511 26.588 100.811 26.4344 101.07 26.2273C101.326 26.0225 101.526 25.7843 101.667 25.5149C101.807 25.2455 101.878 24.9427 101.878 24.6087C101.878 23.992 101.647 23.5044 101.183 23.1437C100.925 22.9634 100.522 22.7719 99.9673 22.5648C99.415 22.36 98.7 22.153 97.8269 21.9481C96.437 21.5874 95.281 21.1711 94.3544 20.6946C93.4279 20.2182 92.7084 19.6861 92.1939 19.0938C91.7574 18.6063 91.4277 18.0519 91.2094 17.4352C90.9912 16.8184 90.882 16.1505 90.882 15.4291C90.882 14.5297 91.0803 13.7126 91.479 12.9801C91.8776 12.2476 92.4233 11.6108 93.1183 11.072C93.8132 10.531 94.6217 10.1213 95.5483 9.83858C96.4749 9.55583 97.4393 9.41556 98.4416 9.41556C99.4439 9.41556 100.466 9.5447 101.431 9.80073C102.395 10.0568 103.295 10.4241 104.13 10.9006C104.965 11.377 105.678 11.9492 106.271 12.6172L103.647 15.5093C103.159 15.0462 102.625 14.6365 102.045 14.2759C101.466 13.9152 100.881 13.6257 100.29 13.4075C99.6978 13.1894 99.1455 13.0803 98.6309 13.0803C98.1164 13.0803 97.7044 13.1248 97.319 13.2161C96.9337 13.3074 96.6107 13.4409 96.3546 13.6213C96.0962 13.8016 95.898 14.0265 95.7577 14.2959C95.6151 14.5653 95.5461 14.8814 95.5461 15.2399C95.5706 15.5494 95.6552 15.8366 95.7978 16.1082C95.9381 16.3776 96.1385 16.6025 96.3947 16.7828C96.6776 16.9632 97.1008 17.168 97.6687 17.3995C98.2345 17.6311 98.9673 17.8493 99.8671 18.0541C101.128 18.3881 102.181 18.7621 103.03 19.1718C103.879 19.5837 104.547 20.0579 105.037 20.5989C105.525 21.062 105.872 21.6008 106.079 22.2175C106.284 22.8342 106.389 23.5155 106.389 24.2614C106.389 25.4703 106.048 26.5501 105.366 27.5008C104.685 28.4515 103.758 29.1974 102.589 29.7384C101.417 30.2772 100.101 30.5488 98.6354 30.5488L98.6398 30.5444Z" fill="var(--fill-0, white)"/>
<path d="M116.078 30.5444C114.612 30.5444 113.338 30.2171 112.258 29.5603C111.178 28.9057 110.353 27.9662 109.79 26.7461C109.224 25.526 108.941 24.0655 108.941 22.3689V9.83636H113.686V21.367C113.686 22.4468 113.853 23.3664 114.187 24.1233C114.521 24.8826 115.009 25.4681 115.652 25.8778C116.294 26.2897 117.067 26.4945 117.966 26.4945C118.635 26.4945 119.245 26.3854 119.8 26.1672C120.352 25.949 120.835 25.6395 121.247 25.241C121.659 24.8425 121.98 24.3683 122.212 23.8139C122.443 23.2617 122.559 22.6628 122.559 22.0216V9.83636H127.303V30.1592H122.675L122.597 25.9178L123.446 25.4547C123.136 26.4321 122.617 27.3005 121.884 28.0574C121.152 28.8167 120.283 29.42 119.281 29.8698C118.278 30.3195 117.209 30.5444 116.078 30.5444Z" fill="var(--fill-0, white)"/>
<path d="M131.315 30.1592V9.83858H135.943L136.021 14.0042L135.135 14.4673C135.391 13.5411 135.892 12.6995 136.64 11.9426C137.387 11.1856 138.273 10.5733 139.302 10.1102C140.331 9.64711 141.385 9.41556 142.465 9.41556C144.008 9.41556 145.3 9.72504 146.343 10.3418C147.385 10.9585 148.169 11.8847 148.697 13.1181C149.225 14.3516 149.488 15.8945 149.488 17.7446V30.1614H144.743V18.092C144.743 17.0633 144.601 16.2084 144.32 15.5271C144.037 14.8458 143.601 14.3449 143.008 14.0243C142.416 13.7037 141.696 13.5545 140.848 13.5812C140.153 13.5812 139.516 13.6903 138.939 13.9085C138.36 14.1267 137.859 14.4362 137.436 14.8347C137.01 15.2332 136.676 15.6896 136.433 16.2039C136.188 16.7182 136.066 17.2838 136.066 17.9005V30.1636H131.322L131.315 30.1592Z" fill="var(--fill-0, white)"/>
<path d="M161.983 30.5444C160.079 30.5444 158.37 30.0813 156.851 29.1573C155.334 28.2311 154.138 26.9732 153.263 25.379C152.388 23.7849 151.951 21.986 151.951 19.98C151.951 17.974 152.388 16.175 153.263 14.5809C154.136 12.9868 155.332 11.7266 156.851 10.8026C158.368 9.87643 160.079 9.41334 161.983 9.41334C163.887 9.41334 165.467 9.76066 166.959 10.4553C168.451 11.1499 169.607 12.114 170.431 13.3474L167.808 16.509C167.422 15.9702 166.932 15.4804 166.342 15.044C165.75 14.6076 165.119 14.2603 164.451 14.002C163.783 13.746 163.112 13.6168 162.444 13.6168C161.313 13.6168 160.304 13.8929 159.415 14.4451C158.528 14.9972 157.827 15.7564 157.312 16.7205C156.798 17.6845 156.542 18.771 156.542 19.98C156.542 21.1889 156.805 22.2687 157.332 23.2194C157.86 24.1701 158.573 24.9293 159.473 25.4948C160.373 26.0603 161.375 26.3431 162.482 26.3431C163.15 26.3431 163.801 26.234 164.431 26.0158C165.061 25.7976 165.658 25.4815 166.224 25.0718C166.79 24.6599 167.318 24.1456 167.805 23.5289L170.429 26.7305C169.554 27.8615 168.351 28.781 166.823 29.4868C165.293 30.1926 163.678 30.5466 161.981 30.5466L161.983 30.5444Z" fill="var(--fill-0, white)"/>
<path d="M180.192 30.5444C178.519 30.5444 177.002 30.0813 175.639 29.1573C174.276 28.2311 173.182 26.9732 172.36 25.379C171.536 23.7849 171.126 21.9726 171.126 19.9421C171.126 17.9116 171.538 16.0993 172.36 14.5052C173.182 12.9111 174.302 11.6643 175.717 10.7648C177.131 9.8653 178.726 9.41556 180.501 9.41556C181.53 9.41556 182.468 9.56473 183.317 9.85862C184.165 10.1547 184.911 10.5711 185.555 11.1121C186.199 11.6509 186.731 12.2698 187.156 12.9623C187.582 13.6569 187.869 14.4028 188.025 15.1998L186.983 14.9304V9.84081H191.767V30.1636H186.945V25.3056L188.063 25.1119C187.883 25.8065 187.555 26.4811 187.078 27.1357C186.602 27.7903 186.012 28.3691 185.303 28.8701C184.595 29.371 183.811 29.7762 182.951 30.0857C182.089 30.3952 181.169 30.5488 180.194 30.5488L180.192 30.5444ZM181.503 26.3431C182.608 26.3431 183.586 26.0737 184.435 25.5327C185.283 24.9939 185.945 24.2413 186.421 23.2773C186.898 22.3133 187.134 21.2023 187.134 19.9421C187.134 18.682 186.896 17.6155 186.421 16.6648C185.945 15.7141 185.283 14.9683 184.435 14.4273C183.586 13.8885 182.608 13.6168 181.503 13.6168C180.399 13.6168 179.425 13.8862 178.59 14.4273C177.755 14.9683 177.104 15.7141 176.641 16.6648C176.178 17.6155 175.946 18.7087 175.946 19.9421C175.946 21.1756 176.178 22.3133 176.641 23.2773C177.104 24.2413 177.753 24.9939 178.59 25.5327C179.425 26.0715 180.396 26.3431 181.503 26.3431Z" fill="var(--fill-0, white)"/>
<path d="M195.738 38.6441V9.83858H200.407L200.485 14.4651L199.674 14.1178C199.828 13.3207 200.264 12.5682 200.986 11.8624C201.705 11.1566 202.587 10.5844 203.628 10.1458C204.67 9.70945 205.755 9.49126 206.888 9.49126C208.688 9.49126 210.29 9.941 211.691 10.8405C213.092 11.74 214.199 12.9756 215.009 14.543C215.82 16.1104 216.225 17.9227 216.225 19.98C216.225 22.0372 215.82 23.8161 215.009 25.3969C214.199 26.9776 213.094 28.2244 211.691 29.1373C210.29 30.0501 208.713 30.5065 206.964 30.5065C205.781 30.5065 204.643 30.275 203.55 29.8119C202.456 29.3488 201.529 28.7454 200.772 27.9996C200.013 27.2537 199.543 26.47 199.364 25.6484L200.523 25.1097V38.6441H195.738ZM206 26.303C207.08 26.303 208.044 26.0336 208.893 25.4926C209.742 24.9538 210.403 24.2079 210.88 23.255C211.356 22.3044 211.593 21.2112 211.593 19.9777C211.593 18.7443 211.361 17.6578 210.898 16.7182C210.434 15.7809 209.78 15.0417 208.931 14.5007C208.082 13.9619 207.104 13.6903 206 13.6903C204.895 13.6903 203.884 13.953 203.048 14.4807C202.213 15.0083 201.549 15.7475 201.062 16.6982C200.574 17.6489 200.329 18.7421 200.329 19.9755C200.329 21.209 200.574 22.3021 201.062 23.2528C201.549 24.2035 202.213 24.9493 203.048 25.4904C203.884 26.0292 204.868 26.3008 206 26.3008V26.303Z" fill="var(--fill-0, white)"/>
<path d="M221.778 5.51931C220.827 5.51931 220.088 5.28109 219.56 4.80686C219.032 4.3304 218.769 3.65579 218.769 2.78303C218.769 1.96148 219.039 1.29133 219.58 0.777023C220.121 0.262718 220.854 0.00667928 221.778 0.00667928C222.756 0.00667928 223.507 0.244907 224.034 0.719136C224.562 1.19559 224.825 1.88356 224.825 2.78303C224.825 3.5801 224.556 4.23467 224.014 4.74897C223.475 5.26327 222.729 5.51931 221.776 5.51931H221.778ZM219.464 9.83858H224.208V30.1614H219.464V9.83858Z" fill="var(--fill-0, white)"/>
<path d="M226.87 14.2336V9.83636H240.062V14.2336H226.87ZM230.881 4.67105H235.626V30.1614H230.881V4.67105Z" fill="var(--fill-0, white)"/>
<path d="M249.631 30.5444C247.958 30.5444 246.441 30.0813 245.078 29.1573C243.715 28.2311 242.622 26.9732 241.8 25.379C240.976 23.7849 240.566 21.9726 240.566 19.9421C240.566 17.9116 240.978 16.0993 241.8 14.5052C242.622 12.9111 243.742 11.6643 245.156 10.7648C246.571 9.8653 248.165 9.41556 249.941 9.41556C250.97 9.41556 251.907 9.56473 252.756 9.85862C253.605 10.1547 254.351 10.5711 254.994 11.1121C255.636 11.6509 256.17 12.2698 256.596 12.9623C257.019 13.6569 257.309 14.4028 257.465 15.1998L256.422 14.9304V9.84081H261.206V30.1636H256.384V25.3056L257.502 25.1119C257.322 25.8065 256.995 26.4811 256.518 27.1357C256.041 27.7903 255.451 28.3691 254.743 28.8701C254.034 29.371 253.25 29.7762 252.388 30.0857C251.526 30.3952 250.607 30.5488 249.631 30.5488V30.5444ZM250.943 26.3431C252.048 26.3431 253.025 26.0737 253.874 25.5327C254.723 24.9939 255.384 24.2413 255.861 23.2773C256.338 22.3133 256.574 21.2023 256.574 19.9421C256.574 18.682 256.335 17.6155 255.861 16.6648C255.384 15.7141 254.723 14.9683 253.874 14.4273C253.025 13.8885 252.048 13.6168 250.943 13.6168C249.838 13.6168 248.865 13.8862 248.03 14.4273C247.194 14.9683 246.544 15.7141 246.081 16.6648C245.617 17.6155 245.386 18.7087 245.386 19.9421C245.386 21.1756 245.617 22.3133 246.081 23.2773C246.544 24.2413 247.192 24.9939 248.03 25.5327C248.865 26.0715 249.836 26.3431 250.943 26.3431Z" fill="var(--fill-0, white)"/>
<path d="M265.216 30.1592V1.62307H270V30.1592H265.216Z" fill="var(--fill-0, white)"/>
</g>
</svg>
