<svg preserveAspectRatio="xMidYMid meet" width="100%" height="100%" overflow="visible" style="display: block;" viewBox="0 0 22.0006 18.0002" fill="none" xmlns="http://www.w3.org/2000/svg">
<path id="Icon" d="M20.0003 13V4.2C20.0003 3.0799 20.0003 2.51984 19.7823 2.09202C19.5906 1.7157 19.2846 1.40974 18.9083 1.21799C18.4804 1 17.9204 1 16.8003 1H5.20029C4.08018 1 3.52013 1 3.09231 1.21799C2.71598 1.40974 2.41002 1.7157 2.21827 2.09202C2.00029 2.51984 2.00029 3.0799 2.00029 4.2V13M3.66695 17H18.3336C18.9536 17 19.2636 17 19.5179 16.9319C20.2081 16.7469 20.7472 16.2078 20.9321 15.5176C21.0003 15.2633 21.0003 14.9533 21.0003 14.3333C21.0003 14.0233 21.0003 13.8683 20.9662 13.7412C20.8737 13.3961 20.6042 13.1265 20.2591 13.0341C20.1319 13 19.9769 13 19.667 13H2.33362C2.02363 13 1.86863 13 1.74147 13.0341C1.39638 13.1265 1.12683 13.3961 1.03436 13.7412C1.00029 13.8683 1.00029 14.0233 1.00029 14.3333C1.00029 14.9533 1.00029 15.2633 1.06844 15.5176C1.25337 16.2078 1.79247 16.7469 2.48265 16.9319C2.73698 17 3.04697 17 3.66695 17Z" stroke="var(--stroke-0, #122D70)" stroke-width="2" stroke-linecap="round" stroke-linejoin="round"/>
</svg>
