<svg preserveAspectRatio="none" width="100%" height="100%" overflow="visible" style="display: block;" viewBox="0 0 22 20" fill="none" xmlns="http://www.w3.org/2000/svg">
<path id="Icon" d="M11 14V19M5 19L11 14L17 19M20 1V9.2C20 10.8802 20 11.7202 19.673 12.362C19.3854 12.9265 18.9265 13.3854 18.362 13.673C17.7202 14 16.8802 14 15.2 14H6.8C5.11984 14 4.27976 14 3.63803 13.673C3.07354 13.3854 2.6146 12.9265 2.32698 12.362C2 11.7202 2 10.8802 2 9.2V1M7 7V10M11 5V10M15 9V10M21 1H1" stroke="var(--stroke-0, #122D70)" stroke-width="2" stroke-linecap="round" stroke-linejoin="round"/>
</svg>
