<svg preserveAspectRatio="xMidYMid meet" width="100%" height="100%" overflow="visible" style="display: block;" viewBox="0 0 22 22" fill="none" xmlns="http://www.w3.org/2000/svg">
<path id="Icon" d="M10 3.50001H17.3C18.4201 3.50001 18.9802 3.50001 19.408 3.718C19.7843 3.90975 20.0903 4.21571 20.282 4.59203C20.5 5.01985 20.5 5.57991 20.5 6.70001V8.00001C20.5 8.9319 20.5 9.39784 20.3478 9.76538C20.1448 10.2554 19.7554 10.6448 19.2654 10.8478C18.8978 11 18.4319 11 17.5 11M12 18.5H4.70001C3.57991 18.5 3.01985 18.5 2.59203 18.282C2.21571 18.0903 1.90975 17.7843 1.718 17.408C1.50001 16.9802 1.50001 16.4201 1.50001 15.3V14C1.50001 13.0681 1.50001 12.6022 1.65225 12.2346C1.85524 11.7446 2.24459 11.3552 2.73465 11.1523C3.10219 11 3.56813 11 4.50001 11M9.30001 13.5H12.7C12.98 13.5 13.1201 13.5 13.227 13.4455C13.3211 13.3976 13.3976 13.3211 13.4455 13.227C13.5 13.1201 13.5 12.98 13.5 12.7V9.30001C13.5 9.01999 13.5 8.87997 13.4455 8.77302C13.3976 8.67894 13.3211 8.60245 13.227 8.55451C13.1201 8.50001 12.98 8.50001 12.7 8.50001H9.30001C9.01999 8.50001 8.87997 8.50001 8.77302 8.55451C8.67894 8.60245 8.60245 8.67894 8.55451 8.77302C8.50001 8.87997 8.50001 9.01999 8.50001 9.30001V12.7C8.50001 12.98 8.50001 13.1201 8.55451 13.227C8.60245 13.3211 8.67894 13.3976 8.77302 13.4455C8.87997 13.5 9.01999 13.5 9.30001 13.5ZM16.8 21H20.2C20.48 21 20.6201 21 20.727 20.9455C20.8211 20.8976 20.8976 20.8211 20.9455 20.727C21 20.6201 21 20.48 21 20.2V16.8C21 16.52 21 16.38 20.9455 16.273C20.8976 16.1789 20.8211 16.1024 20.727 16.0545C20.6201 16 20.48 16 20.2 16H16.8C16.52 16 16.38 16 16.273 16.0545C16.1789 16.1024 16.1024 16.1789 16.0545 16.273C16 16.38 16 16.52 16 16.8V20.2C16 20.48 16 20.6201 16.0545 20.727C16.1024 20.8211 16.1789 20.8976 16.273 20.9455C16.38 21 16.52 21 16.8 21ZM1.80001 6.00001H5.20001C5.48004 6.00001 5.62005 6.00001 5.72701 5.94552C5.82109 5.89758 5.89758 5.82109 5.94552 5.72701C6.00001 5.62005 6.00001 5.48004 6.00001 5.20001V1.80001C6.00001 1.51999 6.00001 1.37997 5.94552 1.27302C5.89758 1.17894 5.82109 1.10245 5.72701 1.05451C5.62005 1.00001 5.48004 1.00001 5.20001 1.00001H1.80001C1.51999 1.00001 1.37997 1.00001 1.27302 1.05451C1.17894 1.10245 1.10245 1.17894 1.05451 1.27302C1.00001 1.37997 1.00001 1.51999 1.00001 1.80001V5.20001C1.00001 5.48004 1.00001 5.62005 1.05451 5.72701C1.10245 5.82109 1.17894 5.89758 1.27302 5.94552C1.37997 6.00001 1.51999 6.00001 1.80001 6.00001Z" stroke="var(--stroke-0, white)" stroke-width="2" stroke-linecap="round" stroke-linejoin="round"/>
</svg>
