<svg preserveAspectRatio="none" width="100%" height="100%" overflow="visible" style="display: block;" viewBox="0 0 24 24" fill="none" xmlns="http://www.w3.org/2000/svg">
<g id="famicons:water-outline">
<path id="Vector" d="M18.75 15C18.75 19.1423 16.1423 21.75 12 21.75C7.85766 21.75 5.25 19.1423 5.25 15C5.25 10.5548 10.0889 4.55391 11.573 2.81812C11.6258 2.75645 11.6913 2.70695 11.7651 2.673C11.8388 2.63906 11.919 2.62148 12.0002 2.62148C12.0814 2.62148 12.1617 2.63906 12.2354 2.673C12.3092 2.70695 12.3747 2.75645 12.4275 2.81812C13.9111 4.55391 18.75 10.5548 18.75 15Z" stroke="var(--stroke-0, #122D70)" stroke-width="1.5" stroke-miterlimit="10"/>
<path id="Vector_2" d="M16.125 15.375C16.125 16.2701 15.7694 17.1285 15.1365 17.7615C14.5035 18.3944 13.6451 18.75 12.75 18.75" stroke="var(--stroke-0, #122D70)" stroke-width="1.5" stroke-linecap="round" stroke-linejoin="round"/>
</g>
</svg>
