<svg preserveAspectRatio="xMidYMid meet" width="100%" height="100%" overflow="visible" style="display: block;" viewBox="0 0 22.0001 19" fill="none" xmlns="http://www.w3.org/2000/svg">
<path id="Icon" d="M15 1.46776C16.4818 2.20411 17.5 3.73314 17.5 5.5C17.5 7.26686 16.4818 8.79589 15 9.53224M17 14.7664C18.5115 15.4503 19.8726 16.565 21 18M1.00004 18C2.94653 15.5226 5.58922 14 8.50004 14C11.4109 14 14.0536 15.5226 16 18M13 5.5C13 7.98528 10.9853 10 8.50004 10C6.01476 10 4.00004 7.98528 4.00004 5.5C4.00004 3.01472 6.01476 1 8.50004 1C10.9853 1 13 3.01472 13 5.5Z" stroke="var(--stroke-0, #122D70)" stroke-width="2" stroke-linecap="round" stroke-linejoin="round"/>
</svg>
