<svg preserveAspectRatio="none" width="100%" height="100%" overflow="visible" style="display: block;" viewBox="0 0 24 24" fill="none" xmlns="http://www.w3.org/2000/svg">
<g id="solar:fire-outline">
<path id="Vector" fill-rule="evenodd" clip-rule="evenodd" d="M12.48 2.76C13.232 2.309 14.208 2.287 15.042 2.89C17.702 4.814 20.75 8.245 20.75 13.111C20.75 16.918 19.115 19.365 17.032 20.835C15.753 21.738 14.323 22.261 13.033 22.525C12.6147 22.6697 12.1756 22.7457 11.733 22.75C11.6303 22.75 11.5213 22.7457 11.406 22.737C11.2485 22.7455 11.0908 22.7498 10.933 22.75C9.473 22.75 7.313 22.266 5.504 20.806C3.663 19.32 2.25 16.877 2.25 13.111C2.25 10.034 3.875 7.965 5.405 6.798C5.6854 6.5756 6.02544 6.44132 6.38213 6.41213C6.73883 6.38294 7.09617 6.46015 7.409 6.634C7.993 6.953 8.402 7.568 8.476 8.29L8.562 9.127C8.595 9.449 8.76 9.717 8.932 9.847C8.98613 9.89221 9.05205 9.92101 9.122 9.93C9.158 9.933 9.216 9.928 9.301 9.873C9.954 9.448 10.45 8.685 10.783 7.787C11.113 6.897 11.25 5.967 11.25 5.333V5.01C11.25 4.037 11.744 3.203 12.48 2.76ZM12.631 21.077C12.2332 21.1537 11.8311 21.2061 11.427 21.234C10.943 21.184 10.334 21.02 9.824 20.67C9.239 20.27 8.75 19.606 8.75 18.444C8.75 17.042 9.618 15.977 10.54 15.295L10.544 15.333V15.344C10.544 15.572 10.544 15.917 10.587 16.275C10.63 16.632 10.721 17.07 10.947 17.455C11.105 17.724 11.347 17.951 11.676 18.048C11.999 18.143 12.306 18.083 12.546 17.97C13.003 17.755 13.329 17.305 13.466 16.83C13.878 17.166 14.25 17.69 14.25 18.445C14.25 19.648 13.803 20.315 13.312 20.699C13.098 20.867 12.862 20.99 12.632 21.077M15.519 20.022C15.7397 19.896 15.9563 19.7587 16.169 19.61C17.864 18.413 19.251 16.416 19.251 13.111C19.251 8.924 16.629 5.888 14.164 4.105C13.839 3.871 13.514 3.89 13.254 4.046C12.978 4.212 12.751 4.553 12.751 5.01V5.333C12.751 6.142 12.584 7.249 12.191 8.309C11.8 9.361 11.151 10.46 10.119 11.131C9.385 11.608 8.593 11.471 8.028 11.043C7.494 10.64 7.142 9.979 7.071 9.28L6.985 8.442C6.959 8.19 6.823 8.022 6.691 7.951C6.579 7.89 6.457 7.883 6.316 7.991C5.049 8.958 3.751 10.625 3.751 13.111C3.751 16.456 4.983 18.457 6.447 19.639C6.844 19.959 7.264 20.223 7.688 20.439C7.415 19.889 7.251 19.229 7.251 18.445C7.251 16.341 8.571 14.872 9.699 14.052C9.92764 13.8811 10.2022 13.7825 10.4874 13.769C10.7725 13.7554 11.0552 13.8275 11.299 13.976C11.753 14.25 12.045 14.759 12.045 15.333C12.045 15.568 12.045 15.833 12.077 16.097C12.0823 16.1397 12.0883 16.181 12.095 16.221C12.255 15.852 12.549 15.567 12.898 15.415C13.316 15.235 13.848 15.238 14.292 15.572C14.992 16.098 15.751 17.042 15.751 18.445C15.751 19.038 15.667 19.563 15.519 20.023" fill="var(--fill-0, #122D70)"/>
</g>
</svg>
