<svg width="1920" height="882" viewBox="0 0 1920 882" fill="none" xmlns="http://www.w3.org/2000/svg">
<g clip-path="url(#clip0_647_2831)">
<g clip-path="url(#clip1_647_2831)">
<path d="M2324.77 555.52C2338.74 494.307 2334.81 428.474 2312.89 358.071C2298.78 312.751 2279.21 276.043 2254.2 247.973C2229.18 219.927 2199.43 199.088 2164.94 185.429C2130.45 171.82 2092.24 164.162 2050.31 162.48C2008.36 160.798 1963.18 164.388 1914.71 173.151C1893.81 177.771 1873.34 180.834 1853.33 182.29C1833.31 183.797 1814.91 182.943 1798.11 179.754C1781.29 176.591 1766.98 170.992 1755.18 162.932C1743.36 154.873 1734.92 142.67 1729.81 126.249C1724.11 107.946 1724.15 90.1442 1729.96 72.87C1735.75 55.6208 1746.35 39.5768 1761.76 24.7631C1777.15 9.94941 1797.17 -2.75521 1821.81 -13.3257C1845.62 -23.5446 1870.15 -29.1688 1895.43 -30.1731C1920.72 -31.1774 1945.95 -27.7878 1971.17 -20.0546C1996.39 -12.2711 2021.52 0.433494 2046.57 18.1095L2130.4 -183.558C2098.48 -211.377 2063.88 -232.066 2026.63 -245.599C1989.4 -259.133 1948.28 -264.154 1903.3 -260.689C1858.31 -257.199 1807.49 -243.315 1750.84 -219.01C1708.14 -200.681 1669.42 -175.573 1634.67 -143.686C1599.92 -111.799 1571.82 -75.6938 1550.41 -35.3453C1528.99 5.02825 1515.4 48.0633 1509.61 93.7347C1503.8 139.431 1507.97 184.927 1522.07 230.247C1535.28 272.704 1552.95 308.583 1575.09 337.859C1597.23 367.185 1624.14 390.059 1655.79 406.53C1687.44 423.026 1723.77 432.843 1764.78 435.981C1805.76 439.17 1852.03 436.785 1903.56 428.876C1922 425.335 1940.25 422.699 1958.33 420.942C1976.39 419.209 1993.95 418.757 2010.96 419.661C2028 420.54 2043.19 423.051 2056.57 427.143C2069.92 431.236 2081.51 437.764 2091.27 446.677C2101.04 455.616 2108.16 467.316 2112.67 481.778C2118.67 501.086 2118.78 519.34 2112.96 536.589C2107.17 553.838 2096.27 569.731 2080.33 584.219C2064.37 598.731 2045.31 610.733 2023.14 620.248C1998.16 630.97 1972.52 638 1946.25 641.289L2183.02 770.545C2203.85 754.626 2222.87 737.201 2239.97 718.195C2282.52 670.967 2310.77 616.733 2324.77 555.495V555.52Z" stroke="white" stroke-miterlimit="10"/>
</g>
<g clip-path="url(#clip2_647_2831)">
<path d="M-237.519 543.202C-231.914 532.513 -224.821 522.53 -216.24 513.254C-207.659 503.977 -197.596 496.006 -186.052 489.341C-169.099 479.554 -152.233 473.168 -135.435 470.217C-118.646 467.25 -102.569 467.825 -87.2033 471.942C-71.8375 476.059 -57.5664 483.322 -44.3569 493.712C-31.1473 504.101 -19.7622 517.595 -10.1849 534.183C-0.607575 550.772 5.74865 568.007 8.24662 584.824C10.7446 601.64 9.98156 617.583 5.94103 632.662C1.90748 647.714 -5.00475 661.562 -14.7792 674.196C-24.5631 686.813 -36.6662 697.285 -51.0884 705.611C-62.6162 712.267 -74.3686 716.891 -86.3456 719.484C-98.306 722.067 -110.256 722.836 -122.161 721.771C-134.067 720.706 -146.099 718.391 -158.247 714.842L-177.343 811.67C-159.241 818.044 -140.048 821.495 -119.788 822.059C-99.5105 822.612 -79.3839 820.232 -59.3721 814.941C-39.3699 809.633 -20.3336 801.774 -2.32237 791.375C26.522 774.722 50.3097 754.505 69.0147 730.717C87.7197 706.929 100.965 681.133 108.718 653.349C116.461 625.547 118.53 596.855 114.878 567.231C111.243 537.597 101.306 508.735 85.0635 480.603C68.8212 452.471 48.3816 428.107 25.0025 409.652C1.61388 391.18 -23.9623 378.316 -51.7356 371.042C-79.502 363.743 -108.126 362.253 -137.617 366.556C-167.102 370.833 -196.093 381.197 -224.573 397.641C-242.965 408.259 -259.958 421.069 -275.561 436.098C-291.157 451.1 -304.156 466.896 -314.54 483.477C-324.918 500.031 -331.705 515.967 -334.884 531.277L-249.952 575.982C-247.267 564.818 -243.123 553.892 -237.519 543.202Z" stroke="white" stroke-miterlimit="10"/>
</g>
</g>
<defs>
<clipPath id="clip0_647_2831">
<rect width="1920" height="882" fill="white"/>
</clipPath>
<clipPath id="clip1_647_2831">
<rect width="828" height="1035" fill="white" transform="translate(1506 -263)"/>
</clipPath>
<clipPath id="clip2_647_2831">
<rect width="454" height="395" fill="white" transform="translate(-27.9199 283) rotate(60)"/>
</clipPath>
</defs>
</svg>
