<svg width="1920" height="810" viewBox="0 0 1920 810" fill="none" xmlns="http://www.w3.org/2000/svg">
<g clip-path="url(#clip0_647_2857)">
<path d="M2156.48 536.897C2164.46 470.632 2152.99 401.473 2121.99 329.481C2102.04 283.138 2077.27 246.506 2047.72 219.608C2018.15 192.74 1984.38 174.013 1946.4 163.406C1908.43 152.851 1867.18 149 1822.67 151.88C1778.13 154.762 1730.77 163.576 1680.51 178.224C1658.92 185.43 1637.62 190.943 1616.64 194.705C1595.64 198.522 1576.09 199.663 1557.98 198.158C1539.85 196.682 1524.09 192.354 1510.72 185.144C1497.33 177.936 1487.05 165.974 1479.83 149.182C1471.76 130.466 1469.83 111.642 1474.06 92.7348C1478.26 73.8562 1487.69 55.7176 1502.33 38.3453C1516.95 20.9755 1536.71 5.32006 1561.58 -8.59197C1585.61 -22.0398 1610.93 -30.711 1637.54 -34.5812C1664.16 -38.4515 1691.21 -37.672 1718.73 -32.2981C1746.25 -26.8712 1774.23 -16.2322 1802.68 -0.328235L1868.9 -222.837C1832.06 -248.7 1793.18 -266.728 1752.3 -276.897C1711.44 -287.068 1667.42 -287.809 1620.25 -279.148C1573.08 -270.461 1520.9 -250.137 1463.7 -218.15C1420.6 -194.03 1382.45 -163.185 1349.26 -125.614C1316.07 -88.0443 1290.37 -46.7532 1272.22 -1.71937C1254.06 43.341 1244.48 90.346 1243.43 139.272C1242.36 188.226 1251.82 235.859 1271.76 282.203C1290.44 325.62 1313.11 361.587 1339.77 390.077C1366.43 418.62 1397.42 439.812 1432.71 453.708C1468 467.631 1507.5 473.974 1551.2 472.736C1594.88 471.553 1643.53 463.892 1697.12 449.807C1716.23 444.015 1735.23 439.201 1754.14 435.334C1773.04 431.496 1791.56 429.067 1809.65 428.133C1827.75 427.17 1844.09 428.136 1858.69 430.977C1873.26 433.819 1886.23 439.434 1897.55 447.772C1908.87 456.136 1917.69 467.715 1924.06 482.503C1932.56 502.247 1934.7 521.532 1930.47 540.413C1926.26 559.292 1916.51 577.304 1901.26 594.391C1886 611.506 1867.18 626.312 1844.81 638.834C1819.59 652.943 1793.26 663.224 1765.86 669.619L2030.52 779.961C2050.77 760.818 2068.95 740.284 2084.91 718.291C2124.64 663.637 2148.48 603.165 2156.48 536.871L2156.48 536.897Z" stroke="white" stroke-miterlimit="10"/>
</g>
<defs>
<clipPath id="clip0_647_2857">
<rect width="1920" height="810" fill="white"/>
</clipPath>
</defs>
</svg>
