<svg width="1440" height="536" viewBox="0 0 1440 536" fill="none" xmlns="http://www.w3.org/2000/svg">
<g clip-path="url(#clip0_647_2844)">
<g clip-path="url(#clip1_647_2844)">
<path d="M1877.77 555.487C1891.74 494.274 1887.81 428.441 1865.89 358.038C1851.78 312.718 1832.21 276.01 1807.2 247.94C1782.18 219.894 1752.43 199.054 1717.94 185.396C1683.45 171.787 1645.24 164.129 1603.31 162.447C1561.36 160.765 1516.18 164.355 1467.71 173.118C1446.81 177.738 1426.34 180.801 1406.33 182.257C1386.31 183.764 1367.91 182.91 1351.11 179.721C1334.29 176.558 1319.98 170.959 1308.18 162.899C1296.36 154.839 1287.92 142.637 1282.81 126.216C1277.11 107.913 1277.15 90.111 1282.96 72.8367C1288.75 55.5876 1299.35 39.5436 1314.76 24.7299C1330.15 9.91621 1350.17 -2.78841 1374.81 -13.3589C1398.62 -23.5778 1423.15 -29.202 1448.43 -30.2063C1473.72 -31.2106 1498.95 -27.821 1524.17 -20.0878C1549.39 -12.3043 1574.52 0.40029 1599.57 18.0763L1683.4 -183.591C1651.48 -211.41 1616.88 -232.099 1579.63 -245.633C1542.4 -259.166 1501.28 -264.187 1456.3 -260.722C1411.31 -257.232 1360.49 -243.348 1303.84 -219.043C1261.14 -200.714 1222.42 -175.606 1187.67 -143.719C1152.92 -111.832 1124.82 -75.727 1103.41 -35.3785C1081.99 4.99504 1068.4 48.0301 1062.61 93.7015C1056.8 139.398 1060.97 184.894 1075.07 230.213C1088.28 272.671 1105.95 308.55 1128.09 337.826C1150.23 367.152 1177.14 390.026 1208.79 406.496C1240.44 422.992 1276.77 432.81 1317.78 435.948C1358.76 439.137 1405.03 436.751 1456.56 428.842C1475 425.302 1493.25 422.666 1511.33 420.908C1529.39 419.176 1546.95 418.724 1563.96 419.628C1581 420.507 1596.19 423.017 1609.57 427.11C1622.92 431.203 1634.51 437.731 1644.27 446.644C1654.04 455.582 1661.16 467.283 1665.67 481.745C1671.67 501.053 1671.78 519.306 1665.96 536.556C1660.17 553.805 1649.27 569.698 1633.33 584.185C1617.37 598.698 1598.31 610.699 1576.14 620.215C1551.16 630.936 1525.52 637.967 1499.25 641.256L1736.02 770.512C1756.85 754.593 1775.87 737.168 1792.97 718.161C1835.52 670.933 1863.77 616.7 1877.77 555.462V555.487Z" stroke="white" stroke-miterlimit="10"/>
</g>
<g clip-path="url(#clip2_647_2844)">
<path d="M-429.632 280.039C-443.997 341.162 -440.483 407.019 -419.005 477.56C-405.188 522.968 -385.847 559.8 -361.022 588.029C-336.176 616.233 -306.561 637.261 -272.157 651.138C-237.752 664.966 -199.591 672.866 -157.673 674.815C-115.735 676.764 -70.5355 673.46 -22.0125 665.006C-1.08319 660.519 19.4088 657.586 39.4204 656.257C59.4538 654.878 77.848 655.848 94.6246 659.143C111.423 662.414 125.705 668.104 137.45 676.238C149.217 684.373 157.58 696.629 162.583 713.081C168.173 731.421 168.017 749.222 162.095 766.459C156.194 783.671 145.492 799.647 129.99 814.363C114.51 829.078 94.4052 841.655 69.6984 852.069C45.8272 862.137 21.2586 867.605 -4.02853 868.448C-29.3157 869.292 -54.5322 865.742 -79.6998 857.849C-104.867 849.905 -129.917 837.041 -154.851 819.207L-239.967 1020.34C-208.217 1048.36 -173.75 1069.27 -136.588 1083.04C-99.4475 1096.81 -58.3634 1102.09 -13.3574 1098.91C31.6488 1095.71 82.555 1082.14 139.362 1058.2C182.175 1040.14 221.057 1015.28 256.008 983.616C290.958 951.95 319.289 916.024 340.958 875.813C362.628 835.576 376.492 792.628 382.574 746.995C388.677 701.336 384.799 655.815 370.983 610.406C358.046 567.866 340.601 531.875 318.647 502.459C296.694 472.993 269.935 449.949 238.39 433.277C206.846 416.581 170.579 406.533 129.59 403.134C88.6224 399.685 42.341 401.776 -9.23248 409.357C-27.6973 412.78 -45.9641 415.301 -64.0544 416.943C-82.1231 418.561 -99.6921 418.901 -116.697 417.889C-133.723 416.902 -148.902 414.295 -162.253 410.118C-175.583 405.94 -187.125 399.339 -196.834 390.364C-206.543 381.363 -213.585 369.618 -218.002 355.127C-223.885 335.782 -223.876 317.528 -217.953 300.316C-212.053 283.104 -201.053 267.28 -185.019 252.894C-168.963 238.484 -149.825 226.604 -127.603 217.229C-102.554 206.666 -76.8649 199.799 -50.5802 196.677L-286.518 65.9196C-307.455 81.7053 -326.585 99.0091 -343.802 117.907C-386.65 164.864 -415.246 218.916 -429.632 280.064L-429.632 280.039Z" stroke="white" stroke-miterlimit="10"/>
</g>
</g>
<defs>
<clipPath id="clip0_647_2844">
<rect width="1440" height="536" rx="24" fill="white"/>
</clipPath>
<clipPath id="clip1_647_2844">
<rect width="828" height="1035" fill="white" transform="translate(1059 -263.033)"/>
</clipPath>
<clipPath id="clip2_647_2844">
<rect width="828" height="1035" fill="white" transform="translate(404.983 993.207) rotate(-179.636)"/>
</clipPath>
</defs>
</svg>
